{"title":"Morning.Glory.2010.DvDRip.x264.Feel-Free","uid":6204442,"size":1427567025,"categoryP":"video","categoryS":"movies","magnet":"?xt=urn:btih:68270b108db15b98bf6529e3a82ba83b4d6f5e5f&amp;dn=Morning.Glory.2010.DvDRip.x264.Feel-Free&amp;tr=udp%3A%2F%2Ftracker.openbittorrent.com%3A80&amp;tr=udp%3A%2F%2Fopen.demonii.com%3A1337&amp;tr=udp%3A%2F%2Ftracker.coppersurfer.tk%3A6969&amp;tr=udp%3A%2F%2Fexodus.desync.com%3A6969","seeders":0,"leechers":1,"uploader":"hiest","files":-1,"time":1298742323,"description":"Genre:Comedy | Drama | Romance \nLanguage:English\nIMDb:http://www.imdb.com/title/tt1126618/\nSource:DVD\nSubtitles:Romana\n\n\nFormat : MPEG-4\nFormat profile : Base Media\nCodec ID : isom\nFile size : 1.33 GiB\nDuration : 1h 47mn\nOverall bit rate : 1 768 Kbps\n\n\nVideo\nFormat profile : &lt;a class=&quot;__cf_email__&quot; href=&quot;/cdn-cgi/l/email-protection&quot; data-cfemail=&quot;0941606e6149453d2738&quot;&gt;[email&amp;#160;protected]&lt;/a&gt;&lt;script cf-hash='f9e31' type=&quot;text/javascript&quot;&gt;\n/* &lt;![CDATA[ */!function(){try{var t=&quot;currentScript&quot;in document?document.currentScript:function(){for(var t=document.getElementsByTagName(&quot;script&quot;),e=t.length;e--;)if(t[e].getAttribute(&quot;cf-hash&quot;))return t[e]}();if(t&amp;&amp;t.previousSibling){var e,r,n,i,c=t.previousSibling,a=c.getAttribute(&quot;data-cfemail&quot;);if(a){for(e=&quot;&quot;,r=parseInt(a.substr(0,2),16),n=2;a.length-n;n+=2)i=parseInt(a.substr(n,2),16)^r,e+=String.fromCharCode(i);e=document.createTextNode(e),c.parentNode.replaceChild(e,c)}}}catch(u){}}();/* ]]&gt; */&lt;/script&gt;\nFormat settings, CABAC : Yes\nFormat settings, ReFrames : 3 frames\nCodec ID : avc1\nCodec ID/Info : Advanced Video Coding\nDuration : 1h 47mn\nBit rate mode : Variable\nBit rate : 1 339 Kbps\nMaximum bit rate : 7 122 Kbps\nWidth : 720 pixels\nHeight : 304 pixels\nDisplay aspect ratio : 2.35:1\nFrame rate mode : Constant\nFrame rate : 23.976 fps\nColor space : YUV\nChroma subsampling : 4:2:0\nBit depth : 8 bits\nScan type : Progressive\nBits/(Pixel*Frame) : 0.255\nStream size : 1 019 MiB (75%)\nWriting library : x264\n\n\nAudio\nID : 2\nFormat : AAC\nFormat/Info : Advanced Audio Codec\nFormat version : Version 4\nFormat profile : LC\nFormat settings, SBR : No\nCodec ID : 40\nDuration : 1h 47mn\nBit rate mode : Variable\nBit rate : 440 Kbps\nMaximum bit rate : 555 Kbps\nChannel(s) : 6 channels\nChannel positions : Front: L C R, Side: L R, LFE\nSampling rate : 48.0 KHz\nStream size : 338 MiB (25%)\n\n\nPlot:\nAn upstart television producer accepts the challenge of reviving a struggling morning show program with warring co-hosts.\n\n\n\n\n\n\n================================== &lt;a href=&quot;\nhttp://thepiratebay.se/user/hiest&quot; rel=&quot;nofollow&quot; target=&quot;_NEW&quot;&gt;\nhttp://thepiratebay.se/user/hiest&lt;/a&gt;\n==================================\n\n\n\n\n\n\nScreenshots:\n &lt;a href=&quot;\nhttp://www.postimg.com/30000/29017.jpg&quot; rel=&quot;nofollow&quot; target=&quot;_NEW&quot;&gt;\nhttp://www.postimg.com/30000/29017.jpg&lt;/a&gt;\n &lt;a href=&quot;\nhttp://www.postimg.com/30000/29020.jpg&quot; rel=&quot;nofollow&quot; target=&quot;_NEW&quot;&gt;\nhttp://www.postimg.com/30000/29020.jpg&lt;/a&gt;\n &lt;a href=&quot;\nhttp://www.postimg.com/30000/29022.jpg&quot; rel=&quot;nofollow&quot; target=&quot;_NEW&quot;&gt;\nhttp://www.postimg.com/30000/29022.jpg&lt;/a&gt;\n &lt;a href=&quot;\nhttp://www.postimg.com/30000/29023.jpg&quot; rel=&quot;nofollow&quot; target=&quot;_NEW&quot;&gt;\nhttp://www.postimg.com/30000/29023.jpg&lt;/a&gt;\n &lt;a href=&quot;\nhttp://www.postimg.com/30000/29021.jpg&quot; rel=&quot;nofollow&quot; target=&quot;_NEW&quot;&gt;\nhttp://www.postimg.com/30000/29021.jpg&lt;/a&gt;","torrent":{"xt":"urn:btih:68270b108db15b98bf6529e3a82ba83b4d6f5e5f","amp;dn":"Morning.Glory.2010.DvDRip.x264.Feel-Free","amp;tr":["udp%3A%2F%2Ftracker.openbittorrent.com%3A80","udp%3A%2F%2Fopen.demonii.com%3A1337","udp%3A%2F%2Ftracker.coppersurfer.tk%3A6969","udp%3A%2F%2Fexodus.desync.com%3A6969"],"infoHash":"68270b108db15b98bf6529e3a82ba83b4d6f5e5f","infoHashBuffer":{"type":"Buffer","data":[104,39,11,16,141,177,91,152,191,101,41,227,168,43,168,59,77,111,94,95]},"announce":[],"urlList":[]}}